HIERARCHY
ROOT base
{
	OFFSET 0.0 0.0 0.0
	CHANNELS 6 Xposition Yposition Zposition Zrotation Yrotation Xrotation
	JOINT root
	{
		OFFSET 0 0 0
		CHANNELS 6 Xposition Yposition Zposition Zrotation Yrotation Xrotation
		JOINT chest
		{
			OFFSET 0 4.72302 0
			CHANNELS 3 Zrotation Yrotation Xrotation
			JOINT neck
			{
				OFFSET 0 4.47788 0
				CHANNELS 3 Zrotation Yrotation Xrotation
				End Site
				{
					OFFSET 0.0 0.0 0.0
				}
			}
			JOINT right_shoulder
			{
				OFFSET -0.481 4.87 3.6622
				CHANNELS 3 Zrotation Yrotation Xrotation
				JOINT right_elbow
				{
					OFFSET 0 -5.49576 0
					CHANNELS 3 Zrotation Yrotation Xrotation
					JOINT right_wrist
					{
						OFFSET 0 -5.17894 0
						CHANNELS 3 Zrotation Yrotation Xrotation
						End Site
						{
							OFFSET 0.0 0.0 0.0
						}
					}
				}
			}
			JOINT left_shoulder
			{
				OFFSET -0.481 4.87 -3.6622
				CHANNELS 3 Zrotation Yrotation Xrotation
				JOINT left_elbow
				{
					OFFSET 0 -5.49576 0
					CHANNELS 3 Zrotation Yrotation Xrotation
					JOINT left_wrist
					{
						OFFSET 0 -5.17894 0
						CHANNELS 3 Zrotation Yrotation Xrotation
						End Site
						{
							OFFSET 0.0 0.0 0.0
						}
					}
				}
			}
		}
		JOINT right_hip
		{
			OFFSET 0 0 1.69774
			CHANNELS 3 Zrotation Yrotation Xrotation
			JOINT right_knee
			{
				OFFSET 0 -8.43092 0
				CHANNELS 3 Zrotation Yrotation Xrotation
				JOINT right_ankle
				{
					OFFSET 0 -8.1974 0
					CHANNELS 3 Zrotation Yrotation Xrotation
					End Site
					{
						OFFSET 0.0 0.0 0.0
					}
				}
			}
		}
		JOINT left_hip
		{
			OFFSET 0 0 -1.69774
			CHANNELS 3 Zrotation Yrotation Xrotation
			JOINT left_knee
			{
				OFFSET 0 -8.43092 0
				CHANNELS 3 Zrotation Yrotation Xrotation
				JOINT left_ankle
				{
					OFFSET 0 -8.1974 0
					CHANNELS 3 Zrotation Yrotation Xrotation
					End Site
					{
						OFFSET 0.0 0.0 0.0
					}
				}
			}
		}
	}
	JOINT red_arrow
	{
		OFFSET 0 0 0
		CHANNELS 3 Zrotation Yrotation Xrotation
		End Site
		{
			OFFSET 0.0 0.0 0.0
		}
	}
	JOINT blue_arrow
	{
		OFFSET 0 0 0
		CHANNELS 3 Zrotation Yrotation Xrotation
		End Site
		{
			OFFSET 0.0 0.0 0.0
		}
	}
}
MOTION
Frames: 9
Frame Time: 0.0333333333333333
0 18.08466 0 0 0 0 0 0 0 0 -90 0 0 0 0 0 0 0 0 0 -90 0 0 0 0 0 0 0 0 90 0 0 0 0 0 0 0 0 0 0 0 0 0 0 0 0 0 0 0 0 0 0 0 0 0 0 0 0 0 0
-0.278632813692093 0 -0.118104635179043 0 0.643928590047787 0 0 17.567601621151 0 -2.69491955728032 2.23632751040404E-16 0.942335740943939 6.41634406816232 -2.69398565712846 1.75371015107508 -19.6359861217277 -5.36915047181303 9.61480553837097 8.47473511657611 -1.621947179476 -9.29789904518681 10.2829104133831 0 0 0 0 0 6.15463291758448 -7.67106569495986 11.3850689481305 3.78547098426043 0 0 0 0 0 -1.80388271291382 0.654986458271387 -2.74037616632747 -2.5387381989246 0 0 7.19465790939064 -1.87515303548264 1.54834686296987 4.69348186575755 -5.87622070984636 2.0056804122996 -0.753075153461891 0 0 -1.49951612944166 6.25098995646577 -3.21713456652886 0 0 0 0 0 0
-0.581794437766075 0 -0.183655518293381 0 0.653834153714785 0 0 17.5668591022491 0 -3.44441038813939 0.187865729647962 0.695208026964674 5.5227095893295 -2.39081791961135 3.90388250515989 -19.1279908028346 -3.79005639137666 9.6508675631277 6.45875626564521 -6.27458268367471 -14.083270707671 9.70123442819187 0 0 0 0 0 1.82554317055862 -6.53439217917152 17.047422086317 1.87427028915249 0 0 0 0 0 1.18449387974535 -0.17968200143143 -2.74980366568074 -4.94226981502104 0 0 7.16016485442698 -1.32263629633509 2.01901640518544 7.12574982683422 -5.06512154277015 1.94661486249853 -1.92131364394778 0 0 -2.00011037065862 5.1641964319119 -2.9878024463738 0 0 0 0 0 0
-0.915782235562801 0 -0.20653079082258 0 0.678332463762605 0 0 17.5575410246849 0 -4.56876030377231 0.463988911713832 0.182187496252796 4.77268695663435 -1.81180065006959 5.16869162131705 -17.920442640109 -2.19391240643097 9.26529442855435 5.91041178986237 -11.396405235666 -19.7312525253484 8.63515374310054 0 0 0 0 0 -2.23456468735464 -4.89027554041982 24.2531744821959 0.113234437897402 0 0 0 0 0 4.53183528435036 -0.254106571515092 -2.35157230052188 -7.20309700812794 0 0 7.18778248794281 -1.46670192739444 2.10551614941495 9.86060732724012 -4.08179828656248 2.26316742146372 -2.70602682061455 0 0 -2.76311096529689 4.00898007063102 -2.85465860225553 0 0 0 0 0 0
-1.31736037731171 0 -0.228701819293201 0 0.719731866042122 0 0 17.536330986023 0 -6.20558087336624 0.781980153684434 -0.350426232485778 3.29494616053398 -1.21318465403599 5.74790880104259 -16.1689755633803 -0.842301780985144 8.36301853488907 6.51078051522722 -16.5027426906666 -27.1190450731293 6.62642925914564 0 0 0 0 0 -6.3245675451824 -1.20174563589457 32.4270535211192 -0.000245240721707797 0 0 0 0 0 8.68915832893169 -0.477089873789742 -1.98667715678896 -9.61288934637234 0 0 7.06549493994444 -1.56391872703485 2.1995702715383 13.5895241140677 -2.93009328301843 2.35393578760892 -3.74904259720899 0 0 -3.86886691809437 3.8664445781054 -2.4138734394708 0 0 0 0 0 0
-1.79935278594494 0 -0.248371732980013 0 0.792766716592287 0 0 17.487992811203 0 -8.40414748143924 1.37276683823505 -0.92382268305326 0.780591296812495 -0.870059612895818 5.69259350878858 -14.3480812827189 0.19103837176433 6.94982354890916 6.73137583040579 -21.7116005563163 -35.6824220539137 3.078345128027 0 0 0 0 0 -10.3527317834532 5.00612856246645 40.4325311877966 -0.00025184746230633 0 0 0 0 0 14.0541151626369 -1.42872205051972 -1.7700732446584 -12.8290444265183 0 0 7.10610291718779 -1.27999206858958 2.30979165940728 19.1221235773374 -1.99061154744868 2.29794378899282 -6.62835793381252 0 0 -4.59835635358089 3.72784650816008 -1.9418600019135 0 0 0 0 0 0
-2.37633444666862 0 -0.283443976938725 0 0.89815662894669 0 0 17.3715163469315 0 -11.0357247345242 1.96540915455024 -1.0052772881694 -2.98319051506684 -0.6760046074482 4.47199870341809 -12.5751627824796 0.93480914386447 4.89968003629136 5.07442130972347 -28.8974764918175 -44.0729999631724 -0.017260234878166 0 0 0 0 0 -14.040213326321 14.813209817827 46.9516367415655 -0.00016600050654267 0 0 0 0 0 21.4990056672271 -2.90750843976626 -2.4367308759975 -18.6129689977693 0 0 8.10423085487726 -0.307266404863427 2.46303875686899 27.3678248863457 -1.44716279620245 1.77791796739558 -13.4570734905118 0 0 -4.74463010087534 2.67020232967884 -1.58680729003755 0 0 0 0 0 0
-3.01636463403702 0 -0.339772898331284 0 1.0312368195341 0 0 17.1246599316597 0 -13.6201705604999 2.45750532118423 -0.406020719962108 -7.48119267815774 -0.920868697749378 2.16502844294352 -10.8489000972355 1.32469743255384 2.18280930782109 1.3675812237136 -39.8582628430959 -51.0754101998132 -2.82220092394765E-06 0 0 0 0 0 -15.8881195413638 28.9754762381151 51.2538039165849 -6.21873320152205E-05 0 0 0 0 0 30.6013608035324 -4.57940427289877 -4.31539483120427 -27.020680856603 0 0 10.1537400750037 1.60479975694216 2.6041873183443 37.7782041008977 -1.3786496356629 0.625785267775997 -23.9247934549098 0 0 -5.63090712004337 1.38787591702601 -1.45603791766966 0 0 0 0 0 0
-3.68170155882835 0 -0.39385992269963 0 1.19344494248635 0 0 16.7260561943054 0 -15.9043246424509 2.96419363095765 0.614560634547099 -11.659420400644 -2.2988003796409 -0.751383319476103 -9.38621676515105 1.7207139283503 -0.720426198172665 -2.66427044846068 -52.8300817508734 -56.2568421114125 -9.59292387883646E-05 0 0 0 0 0 -14.3049709501338 46.536633572091 54.6566324466296 -1.77430942526648E-06 0 0 0 0 0 40.543408087433 -5.98124738145129 -7.05938819607421 -36.831422853984 0 0 12.2968302885475 3.995511832845 2.52778040473153 48.5405046509291 -2.21935826895042 -0.839421277179691 -34.8102913314018 0 0 -8.45841049660599 -1.30446850757283 -1.6795511563252 0 0 0 0 0 0
